<mxfile host="app.diagrams.net" agent="Mozilla/5.0 (Windows NT 10.0; Win64; x64) AppleWebKit/537.36 (KHTML, like Gecko) Chrome/140.0.0.0 Safari/537.36 Edg/140.0.0.0" version="28.2.5">
  <diagram id="C5RBs43oDa-KdzZeNtuy" name="Page-1">
    <mxGraphModel dx="1426" dy="832" grid="1" gridSize="10" guides="1" tooltips="1" connect="1" arrows="1" fold="1" page="1" pageScale="1" pageWidth="827" pageHeight="1169" math="0" shadow="0">
      <root>
        <mxCell id="WIyWlLk6GJQsqaUBKTNV-0" />
        <mxCell id="WIyWlLk6GJQsqaUBKTNV-1" parent="WIyWlLk6GJQsqaUBKTNV-0" />
        <mxCell id="XS4eOasudMMm6uj3W0qg-6" style="edgeStyle=orthogonalEdgeStyle;rounded=0;orthogonalLoop=1;jettySize=auto;html=1;" parent="WIyWlLk6GJQsqaUBKTNV-1" source="XS4eOasudMMm6uj3W0qg-0" target="XS4eOasudMMm6uj3W0qg-2" edge="1">
          <mxGeometry relative="1" as="geometry" />
        </mxCell>
        <mxCell id="XS4eOasudMMm6uj3W0qg-0" value="Copilot Studio" style="image;aspect=fixed;html=1;points=[];align=center;fontSize=12;image=img/lib/azure2/power_platform/CopilotStudio.svg;" parent="WIyWlLk6GJQsqaUBKTNV-1" vertex="1">
          <mxGeometry x="340" y="40" width="148" height="135.64" as="geometry" />
        </mxCell>
        <mxCell id="XS4eOasudMMm6uj3W0qg-11" style="edgeStyle=orthogonalEdgeStyle;rounded=0;orthogonalLoop=1;jettySize=auto;html=1;" parent="WIyWlLk6GJQsqaUBKTNV-1" source="XS4eOasudMMm6uj3W0qg-1" target="XS4eOasudMMm6uj3W0qg-8" edge="1">
          <mxGeometry relative="1" as="geometry" />
        </mxCell>
        <mxCell id="XS4eOasudMMm6uj3W0qg-1" value="SharePoint" style="sketch=0;pointerEvents=1;shadow=0;dashed=0;html=1;strokeColor=none;fillColor=#505050;labelPosition=center;verticalLabelPosition=bottom;outlineConnect=0;verticalAlign=top;align=center;shape=mxgraph.office.clouds.cloud_sharepoint;" parent="WIyWlLk6GJQsqaUBKTNV-1" vertex="1">
          <mxGeometry x="560" y="381" width="180" height="110" as="geometry" />
        </mxCell>
        <mxCell id="XS4eOasudMMm6uj3W0qg-10" style="edgeStyle=orthogonalEdgeStyle;rounded=0;orthogonalLoop=1;jettySize=auto;html=1;" parent="WIyWlLk6GJQsqaUBKTNV-1" source="XS4eOasudMMm6uj3W0qg-2" target="XS4eOasudMMm6uj3W0qg-1" edge="1">
          <mxGeometry relative="1" as="geometry" />
        </mxCell>
        <mxCell id="XS4eOasudMMm6uj3W0qg-12" style="edgeStyle=orthogonalEdgeStyle;rounded=0;orthogonalLoop=1;jettySize=auto;html=1;entryX=0.5;entryY=0;entryDx=0;entryDy=0;" parent="WIyWlLk6GJQsqaUBKTNV-1" source="XS4eOasudMMm6uj3W0qg-2" target="XS4eOasudMMm6uj3W0qg-5" edge="1">
          <mxGeometry relative="1" as="geometry" />
        </mxCell>
        <mxCell id="XS4eOasudMMm6uj3W0qg-2" value="DQA Agent" style="shadow=0;dashed=0;html=1;strokeColor=none;fillColor=#4495D1;labelPosition=center;verticalLabelPosition=bottom;verticalAlign=top;align=center;outlineConnect=0;shape=mxgraph.veeam.2d.agent;pointerEvents=1;" parent="WIyWlLk6GJQsqaUBKTNV-1" vertex="1">
          <mxGeometry x="354" y="277" width="120" height="120" as="geometry" />
        </mxCell>
        <mxCell id="DGrGUL0mhKRAY260WmBN-2" style="edgeStyle=orthogonalEdgeStyle;rounded=0;orthogonalLoop=1;jettySize=auto;html=1;" edge="1" parent="WIyWlLk6GJQsqaUBKTNV-1" source="XS4eOasudMMm6uj3W0qg-3" target="XS4eOasudMMm6uj3W0qg-2">
          <mxGeometry relative="1" as="geometry" />
        </mxCell>
        <mxCell id="DGrGUL0mhKRAY260WmBN-4" style="edgeStyle=orthogonalEdgeStyle;rounded=0;orthogonalLoop=1;jettySize=auto;html=1;" edge="1" parent="WIyWlLk6GJQsqaUBKTNV-1" source="XS4eOasudMMm6uj3W0qg-3" target="DGrGUL0mhKRAY260WmBN-0">
          <mxGeometry relative="1" as="geometry" />
        </mxCell>
        <mxCell id="XS4eOasudMMm6uj3W0qg-3" value="Teams Group" style="sketch=0;pointerEvents=1;shadow=0;dashed=0;html=1;strokeColor=none;fillColor=#DF8C42;labelPosition=center;verticalLabelPosition=bottom;verticalAlign=top;align=center;outlineConnect=0;shape=mxgraph.veeam2.microsoft_teams;" parent="WIyWlLk6GJQsqaUBKTNV-1" vertex="1">
          <mxGeometry x="190" y="290" width="94" height="94" as="geometry" />
        </mxCell>
        <mxCell id="DGrGUL0mhKRAY260WmBN-3" style="edgeStyle=orthogonalEdgeStyle;rounded=0;orthogonalLoop=1;jettySize=auto;html=1;" edge="1" parent="WIyWlLk6GJQsqaUBKTNV-1" source="XS4eOasudMMm6uj3W0qg-5" target="XS4eOasudMMm6uj3W0qg-3">
          <mxGeometry relative="1" as="geometry" />
        </mxCell>
        <mxCell id="XS4eOasudMMm6uj3W0qg-5" value="Template Word" style="shape=image;html=1;verticalAlign=top;verticalLabelPosition=bottom;labelBackgroundColor=#ffffff;imageAspect=0;aspect=fixed;image=https://icons.diagrams.net/icon-cache1/Perqui-2061/ms_word-1112.png" parent="WIyWlLk6GJQsqaUBKTNV-1" vertex="1">
          <mxGeometry x="367" y="530" width="94" height="94" as="geometry" />
        </mxCell>
        <mxCell id="XS4eOasudMMm6uj3W0qg-9" value="" style="group" parent="WIyWlLk6GJQsqaUBKTNV-1" vertex="1" connectable="0">
          <mxGeometry x="620" y="540" width="183" height="84.29999999999995" as="geometry" />
        </mxCell>
        <mxCell id="XS4eOasudMMm6uj3W0qg-4" value="" style="image;aspect=fixed;perimeter=ellipsePerimeter;html=1;align=center;shadow=0;dashed=0;spacingTop=3;image=img/lib/active_directory/documents.svg;" parent="XS4eOasudMMm6uj3W0qg-9" vertex="1">
          <mxGeometry x="130" y="4" width="53" height="80.3" as="geometry" />
        </mxCell>
        <mxCell id="XS4eOasudMMm6uj3W0qg-7" value="" style="image;aspect=fixed;perimeter=ellipsePerimeter;html=1;align=center;shadow=0;dashed=0;spacingTop=3;image=img/lib/active_directory/documents.svg;" parent="XS4eOasudMMm6uj3W0qg-9" vertex="1">
          <mxGeometry width="53" height="80.3" as="geometry" />
        </mxCell>
        <mxCell id="XS4eOasudMMm6uj3W0qg-8" value="RAG KB" style="image;aspect=fixed;perimeter=ellipsePerimeter;html=1;align=center;shadow=0;dashed=0;spacingTop=3;image=img/lib/active_directory/documents.svg;" parent="XS4eOasudMMm6uj3W0qg-9" vertex="1">
          <mxGeometry x="60" width="53" height="80.3" as="geometry" />
        </mxCell>
        <mxCell id="DGrGUL0mhKRAY260WmBN-1" style="edgeStyle=orthogonalEdgeStyle;rounded=0;orthogonalLoop=1;jettySize=auto;html=1;" edge="1" parent="WIyWlLk6GJQsqaUBKTNV-1" source="DGrGUL0mhKRAY260WmBN-0" target="XS4eOasudMMm6uj3W0qg-3">
          <mxGeometry relative="1" as="geometry" />
        </mxCell>
        <mxCell id="DGrGUL0mhKRAY260WmBN-0" value="User" style="outlineConnect=0;dashed=0;verticalLabelPosition=bottom;verticalAlign=top;align=center;html=1;shape=mxgraph.aws3.user;fillColor=#D2D3D3;gradientColor=none;" vertex="1" parent="WIyWlLk6GJQsqaUBKTNV-1">
          <mxGeometry x="30" y="285" width="90" height="104" as="geometry" />
        </mxCell>
      </root>
    </mxGraphModel>
  </diagram>
</mxfile>
